PathFileType	4	(X/Y/Z)	C:/Users/beibeiliu/ov580/test_trc\sequence.11_training_dense_right.trc
DataRate	CameraRate	NumFrames	NumMarkers	Units	OrigDataRate	OrigDataStartFrame	OrigNumFrames
120	120	24	19	mm	120	249	398
Frame#	Time	ThumbCMC			ThumbMCP			ThumbIP			ThumbTip			IndexMCP			IndexPIP			IndexTip			MiddleMCP			MiddlePIP			MiddleTip			RingMCP			RingPIP			RingTip			PinkyMCP			PinkyPIP			PinkyTip			BackHand1			BackHand2			BackHand3	
		X0	Y0	Z0	X1	Y1	Z1	X2	Y2	Z2	X3	Y3	Z3	X4	Y4	Z4	X5	Y5	Z5	X6	Y6	Z6	X7	Y7	Z7	X8	Y8	Z8	X9	Y9	Z9	X10	Y10	Z10	X11	Y11	Z11	X12	Y12	Z12	X13	Y13	Z13	X14	Y14	Z14	X15	Y15	Z15	X16	Y16	Z16	X17	Y17	Z17	X18	Y18	Z18	
248	2.06667	216.238	28.435	38.959	201.181	50.0521	16.4699	179.772	45.6828	-2.23127	156.69	34.537	-7.34557	212.094	29.2567	-25.9751	209.332	36.1558	-45.3681	209.77	43.4384	-66.3098	188.406	12.9648	-33.5012	187.965	17.2381	-53.5679	184.068	16.6098	-76.6317	172.496	5.79037	-20.9401	167.088	6.5842	-38.8403	160.194	4.01144	-61.5378	152.653	-1.96458	-3.46544	143.186	-0.159704	-16.9913	130.661	-8.12553	-31.7445	186.059	-10.2354	17.4711	191.666	-21.2074	40.0553	211.602	-1.61963	23.0771	
249	2.075	215.459	26.0139	39.519	199.296	48.2462	13.5675	180.267	45.617	-0.232418	155.495	32.5107	-6.24026	210.087	28.3878	-28.3915	211.031	37.3895	-46.4614	208.942	43.2663	-66.1419	188.132	12.1439	-34.017	187.818	16.1063	-52.1887	181.546	14.5655	-78.2268	171.18	4.94889	-24.1557	163.978	4.98036	-40.9191	159.32	3.21116	-60.5817	153.715	-0.0778005	-6.24302	140.507	-1.32695	-13.9657	130.815	-5.51186	-33.2308	188.16	-8.83463	16.1495	193.933	-19.4334	41.3197	210.543	-5.05515	23.5577	
250	2.08333	216.486	28.8877	34.7221	199.856	51.7028	15.3599	178.622	48.2501	-2.92357	158.03	33.3809	-5.02595	212.783	30.3054	-29.0808	209.015	35.1695	-45.4255	211.138	43.7724	-65.1617	189.439	13.4806	-30.7065	184.969	14.8949	-53.5587	181.55	15.1841	-77.0749	169.139	3.8323	-18.5439	162.626	4.17672	-38.8469	158.231	1.89633	-60.8158	152.355	-0.730461	-4.20521	140.844	-1.79439	-17.439	131.841	-5.87135	-31.1298	188.56	-9.58157	17.9381	194.783	-16.9625	38.3532	213.536	-0.825939	20.4707	
251	2.09167	218.775	29.3679	36.1122	200.859	49.09	16.8047	180.997	47.5321	0.483044	157.361	32.1155	-6.77916	213.696	28.6716	-24.0738	213.96	38.3067	-47.1555	210.682	43.6865	-70.3892	192.961	14.4723	-30.4872	186.797	16.9835	-54.3459	185.249	16.8132	-76.1596	172.375	5.05575	-21.2331	163.023	3.49149	-39.3078	159.983	3.76601	-60.8276	152.13	-2.26191	-4.06855	142.32	-0.5206	-18.3891	134.822	-7.62634	-32.5677	188.878	-9.65868	14.406	191.589	-18.3838	37.9564	213.086	-1.2944	21.0105	
252	2.1	218.216	28.7787	36.634	201.508	49.1718	12.78	181.021	46.8938	-1.62192	161.457	34.4537	-4.16006	210.553	25.0684	-26.1743	212.058	35.8342	-48.0209	214.645	43.7261	-69.9389	192.076	13.6504	-31.5807	186.444	15.2678	-51.5912	184.546	17.5561	-79.4692	172.765	5.08792	-21.1809	164.596	3.57765	-39.8058	160.869	2.9169	-60.9117	156.237	-0.224146	-6.85635	142.763	-1.8391	-16.3112	133.612	-8.15188	-29.3641	187.039	-11.9358	16.1144	192.074	-20.3908	39.1428	212.431	-4.20673	22.1196	
253	2.10833	218.988	27.583	34.2978	202.863	47.738	16.817	180.26	45.618	-4.52099	158.536	32.3654	-7.85472	215.554	26.4363	-26.2122	215.227	35.3409	-46.9765	216.364	42.4023	-65.413	194.953	13.93	-31.5872	188.107	14.7855	-55.6942	187.451	16.1511	-79.2515	172.103	2.927	-22.528	166.845	5.07237	-39.9005	162.73	3.12218	-61.0285	154.433	-1.98677	-4.62806	146.283	-1.5143	-16.5061	136.059	-8.93917	-29.9764	186.905	-10.1992	15.2239	197.075	-20.5714	38.0255	213.629	-5.86672	22.6228	
254	2.11667	217.473	25.095	37.1405	201.52	45.4766	15.4424	182.47	42.5595	-1.54948	162.145	27.1233	-4.06149	213.421	24.631	-30.2716	212.582	32.8807	-46.4473	217.511	42.7745	-70.9796	195.449	12.1777	-31.3941	190.447	14.3758	-55.4595	186.168	14.981	-81.2429	173.625	2.39793	-23.3809	168.334	3.10357	-43.0985	162.692	2.2537	-63.5633	153.61	-4.60043	-5.26341	146.109	-1.86407	-22.5365	137.282	-6.94398	-32.5971	186.676	-13.9341	17.1492	197.382	-20.1949	35.6638	215.893	-5.31823	23.5676	
255	2.125	218.967	25.2507	37.8519	201.573	45.1383	11.6586	180.854	44.3454	-5.05404	158.186	27.658	-8.54037	214.722	23.3077	-26.4533	215.5	32.7201	-48.4789	216.57	40.7381	-71.9786	194.316	10.556	-34.1389	189.658	12.9845	-55.165	186.464	14.0924	-77.0062	174.178	2.13585	-21.3293	166.433	1.44496	-45.968	163.185	2.15491	-62.1176	153.853	-5.38811	-5.74169	144.79	-3.56099	-20.2061	138.167	-8.07821	-33.0296	187.011	-12.1683	13.637	196.138	-22.4895	39.0281	216.097	-4.23026	21.5611	
256	2.13333	216.51	23.22	32.6557	199.945	43.6586	12.4607	180.578	40.8493	-4.37685	161.912	28.862	-7.36341	211.742	22.878	-29.8112	214.507	31.301	-47.563	214.306	39.0999	-69.7258	191.159	7.69927	-31.8337	187.189	11.0214	-55.5339	186.383	12.7517	-80.426	175.027	2.37038	-27.2114	163.827	0.826815	-42.8734	162.166	0.337956	-62.0277	152.057	-5.54181	-9.39688	144.121	-3.05429	-23.3993	136.992	-9.35127	-32.0406	189.067	-12.8	13.8702	195.939	-22.8818	35.0789	212.871	-9.45455	22.5899	
257	2.14167	217.376	24.1114	35.3682	199.521	42.0878	13.2415	179.927	42.9494	-3.51832	159.595	27.1408	-8.45229	212.799	24.1983	-30.6976	208.631	31.243	-52.7464	210.925	38.0161	-70.7652	192.759	8.55609	-34.9648	186.895	11.1068	-54.8526	182.15	10.1617	-80.2939	172.957	1.00942	-25.8638	163.039	0.40237	-45.1175	160.334	-0.236511	-62.7475	151.222	-4.81628	-7.88169	142.231	-3.73857	-19.6667	131.396	-11.2798	-34.7549	184.286	-12.9935	11.4794	192.322	-24.225	34.557	211.302	-8.59399	22.3155	
258	2.15	213.503	22.8273	35.3118	198.232	45.2769	8.92298	178.309	41.7349	-5.46969	155.591	27.4928	-10.2197	208.021	21.4889	-30.2492	206.785	31.1817	-53.2519	206.338	37.0722	-69.5458	186.115	7.28667	-34.675	185.618	11.1908	-59.4135	179.385	9.99763	-81.8354	165.699	-1.35155	-27.2653	161.136	-0.568907	-46.2611	154.807	-1.55998	-66.1481	152.113	-3.97927	-6.56236	136.925	-6.16067	-20.0805	130.192	-10.8391	-36.5883	184.48	-14.8479	11.9081	186.901	-24.1742	33.7423	211.295	-8.47466	18.9915	
259	2.15833	213.313	23.2649	32.6489	196.083	42.2973	9.69871	177.129	40.4654	-5.74253	155.728	30.4716	-11.0979	209.018	24.2224	-33.2224	207.059	32.7002	-52.6117	208.128	39.0125	-74.2285	183.622	8.2646	-38.829	184.3	13.0194	-58.9373	175.883	9.04179	-79.1934	168.879	0.79478	-25.7407	159.101	1.23611	-42.9783	155.278	0.796248	-64.0787	146.746	-6.75955	-8.89435	135.393	-6.2493	-23.3051	129.623	-12.0901	-34.2627	180.283	-14.9614	8.70651	185.753	-24.0716	35.9256	211.193	-6.49831	20.4132	
260	2.16667	212.812	24.8566	33.2417	196.535	44.5974	11.9394	176.12	44.0342	-7.32083	152.125	31.8526	-14.3914	203.827	23.2527	-34.8572	202.485	30.4686	-52.1609	204.764	39.7993	-75.0809	184.196	8.92649	-34.4674	181.019	11.3656	-57.481	176.235	10.4286	-80.7937	166.657	1.79581	-27.277	159.321	1.39919	-46.973	152.694	-0.171377	-65.8338	145.428	-6.2701	-9.52575	135.926	-5.65831	-20.3618	126.936	-11.4359	-33.1749	179.405	-13.3636	12.7851	187.559	-22.4525	34.7066	207.076	-7.3414	15.3956	
261	2.175	211.383	22.8491	33.1151	195.045	43.9287	8.13543	174.109	39.5632	-8.79875	154.581	26.8306	-11.3377	204.452	24.2432	-33.1858	206.545	33.1146	-50.7102	203.013	39.8304	-73.1958	185.481	10.2782	-38.3242	178.212	12.0014	-58.5006	176.443	11.2451	-83.9378	165.033	1.13907	-28.4962	157.044	1.04377	-44.0174	152.751	0.677262	-67.3716	149.321	-3.81836	-6.69348	135.653	-5.91233	-20.4133	127.8	-10.7418	-38.4823	179.797	-13.0702	9.6468	189.901	-20.5087	33.0808	207.617	-5.52227	17.49	
262	2.18333	212.398	24.9308	29.3685	196.258	46.6539	11.3626	176.701	45.6783	-8.10108	154.558	31.2773	-13.0553	205.184	26.2132	-35.679	201.942	32.8039	-52.7355	202.239	39.0579	-74.0507	182.161	10.0381	-37.6149	178.806	12.2356	-61.0932	174.977	11.7085	-81.6224	165.962	1.6019	-25.7358	158.696	2.73058	-47.4569	150.774	-0.6997	-66.3226	148.013	-4.03109	-8.64776	138.198	-5.02914	-21.1167	129.171	-9.96288	-33.6326	178.729	-13.838	13.0509	188.892	-23.4669	32.0484	207.437	-6.12609	13.8934	
263	2.19167	212.605	25.1885	28.4771	197.199	45.6427	9.2359	175.665	41.712	-9.55074	154.889	31.6979	-13.9019	206.99	26.1411	-34.8448	207.368	34.8599	-53.5071	205.568	40.2173	-70.91	183.968	10.1397	-35.4247	180.596	13.4241	-56.9996	179.465	13.3995	-82.6815	167.646	1.38057	-26.8677	157.62	0.357684	-44.8119	151.605	-0.367582	-62.92	149.584	-4.97366	-6.92755	138.425	-4.46143	-21.4728	132.3	-11.1882	-35.0357	182.386	-12.5973	11.7422	191.374	-22.7883	32.852	209.124	-4.17655	18.0933	
264	2.2	216.565	26.8361	33.6286	199.167	45.9302	11.887	176.782	42.1599	-8.58984	158.287	31.2566	-9.50799	207.137	26.1285	-34.8951	208.252	35.3036	-50.9967	204.307	40.0518	-71.2638	185.416	10.1667	-36.4424	181.624	12.257	-58.1406	178.35	11.8418	-83.771	167.088	0.153914	-24.2479	162.335	2.4938	-45.9215	152.732	-0.744095	-66.3274	152.693	-3.7867	-7.84063	141.402	-4.95271	-21.9131	132.439	-10.9474	-38.4312	181.286	-13.7135	13.6226	192.342	-20.1357	31.7567	210.573	-4.29022	18.419	
265	2.20833	215.427	24.6	30.9812	200.123	46.1787	9.84617	178.222	43.2892	-8.26684	155.982	29.3545	-10.172	208.17	25.1878	-32.4913	208.788	34.2691	-50.8255	207.993	41.6116	-72.6571	188.677	11.0379	-38.3176	184.851	14.3679	-56.5798	178.615	12.338	-80.43	170.514	2.63745	-25.7921	161.526	0.529263	-46.2601	157.944	1.16184	-61.2853	150.965	-5.88689	-7.27281	145.213	-4.25703	-18.2249	132.369	-11.526	-33.1486	182.589	-10.689	9.94568	195.156	-21.6835	35.9774	213.771	-4.03537	18.0525	
266	2.21667	219.882	28.8225	31.9816	201.826	47.0679	13.7933	182.591	42.4082	-2.17514	157.507	29.3537	-7.23595	211.527	24.5858	-27.7512	212.742	36.643	-51.8096	209.832	42.0198	-70.389	191.487	11.6719	-36.3704	190.004	14.8153	-57.3252	188.084	15.6182	-79.4414	176.56	3.23381	-25.0925	165.02	1.53523	-40.8326	161.281	0.786314	-62.9818	159.604	-3.58276	-4.90241	145.108	-6.69066	-16.3026	140.175	-12.7709	-34.5402	188.393	-12.1752	12.9828	196.067	-18.6581	33.8114	214.551	-3.0626	21.7566	
267	2.225	219.004	27.9702	38.1155	202.268	48.3301	14.5299	182.381	44.3141	-1.29781	162.234	29.0073	-3.81009	218.943	30.5292	-26.3716	213.366	36.2488	-47.4186	212.724	44.4162	-72.612	199.113	14.0716	-34.5041	193.423	16.0304	-56.039	191.992	15.8199	-77.9151	180.229	1.53971	-24.8643	174.314	3.81179	-45.1725	168.892	2.46461	-66.3652	163.058	-5.20067	-5.95866	151.187	-7.70221	-17.0622	142.687	-14.1117	-35.5778	192.956	-11.5483	11.5688	202.262	-19.8967	35.0922	219.758	0.30763	19.9052	
268	2.23333	220.378	34.2227	41.9564	199.211	53.8211	15.8834	182.817	47.1575	1.65816	162.407	27.2441	-8.40149	219.717	31.9721	-27.9753	219.807	43.4819	-46.7628	218.089	49.7767	-66.6621	204.173	14.4621	-32.8066	203.306	19.6755	-52.7215	197.875	17.0446	-80.112	189.423	1.57442	-26.3362	183.087	4.15698	-46.629	177.649	5.92138	-65.5476	169.831	-10.9843	-7.61359	159.448	-12.2254	-25.0289	151.405	-18.9326	-39.1628	201.601	-9.55077	13.0101	206.922	-18.2513	40.0338	226.314	4.73169	28.3261	
269	2.24167	211.358	35.7959	42.0045	192.099	51.4598	19.2956	177.268	46.357	-0.622176	164.464	27.2493	-13.1984	222.928	41.7734	-20.2828	219.862	47.963	-44.1171	218.012	53.6812	-61.8184	214.454	20.7433	-28.0102	211.578	21.6735	-54.4964	210.71	22.7717	-78.9576	200.641	-0.406075	-23.1271	195.453	3.51355	-45.4237	187.792	8.26317	-65.1676	184.02	-18.4894	-11.8957	175.668	-17.907	-29.7746	166.916	-20.2128	-47.198	213.649	-8.49962	14.5245	219.141	-13.8032	38.4003	229.696	13.0926	30.556	
270	2.25	201.402	40.6717	45.2981	179.512	49.9123	22.1817	172.208	42.3349	1.41983	166.348	26.1267	-17.4465	218.868	44.8051	-17.1102	216.531	52.9973	-39.793	216.448	60.5354	-57.0852	219.187	26.472	-26.0375	218.536	27.9613	-48.6309	220.744	35.3668	-75.2221	210.531	2.78894	-25.1629	202.732	8.04501	-50.2575	190.092	12.121	-68.906	201.725	-19.5435	-13.345	193.106	-21.1517	-32.1996	183.685	-15.2349	-51.2297	219.863	-4.39097	21.1721	225.615	-7.35435	46.1833	228.322	18.0809	37.7434	
271	2.25833	188.71	34.8386	47.1734	169.058	41.3461	20.4957	163.597	38.62	-2.55755	166.042	25.4659	-24.6561	210.885	50.061	-11.8678	209.803	58.8709	-33.2559	211.002	66.6789	-56.6418	219.627	30.643	-22.066	221.816	33.8011	-45.1259	222.441	38.9163	-69.2216	217.033	7.46467	-21.6368	206.59	6.97202	-48.4696	188.815	11.4129	-63.0203	214.244	-14.1338	-14.5788	203.923	-16.9095	-37.3415	192.075	-11.8564	-52.1484	226.487	2.9672	20.5674	224.895	-7.87411	49.1902	222.034	24.9415	41.3907	
